inDegrees=yes
name=ik_orientation_Tpose_Bogen
DataType=double
version=3
OpenSimVersion=4.3-2021-08-27-4bc7ad9
endheader
time	pelvis_tilt	pelvis_list	pelvis_rotation	pelvis_tx	pelvis_ty	pelvis_tz	hip_flexion_r	hip_adduction_r	hip_rotation_r	knee_angle_r	knee_angle_r_beta	ankle_angle_r	subtalar_angle_r	mtp_angle_r	hip_flexion_l	hip_adduction_l	hip_rotation_l	knee_angle_l	knee_angle_l_beta	ankle_angle_l	subtalar_angle_l	mtp_angle_l	lumbar_extension	lumbar_bending	lumbar_rotation	arm_flex_r	arm_add_r	arm_rot_r	elbow_flex_r	pro_sup_r	wrist_flex_r	wrist_dev_r	arm_flex_l	arm_add_l	arm_rot_l	elbow_flex_l	pro_sup_l	wrist_flex_l	wrist_dev_l
11.63	-3.102487277858563	-0.6740549506300045	146.6024571443465	0	0.9399999999999999	0	44.99271548864568	-9.999999980292452	0	59.99788272630227	1.047160597799407	-4.999999850679611	0	0	44.99271548864568	-9.999999980292452	0	59.99788272630227	1.047160597799407	-4.999999850679611	0	0	-4.73668210607891	1.720451364863414	-1.134074038796563	0	-14.75512024280042	0	75.00224420373402	45.00000088250473	0	0	-89.96143262180392	-42.24066502300993	84.46481844115561	96.27160353335047	45.00000088250473	0	0
11.64	-3.109847105185218	-0.6908077099528753	146.573257078803	0	0.9399999999999999	0	44.99271852804336	-9.999999980304565	0	59.9978834634654	1.04716061066533	-4.999999850680311	0	0	44.99271852804336	-9.999999980304565	0	59.9978834634654	1.04716061066533	-4.999999850680311	0	0	-4.592761217586597	1.511343167732209	-1.092375463645091	0	-14.75517243556926	0	75.00224334074828	45.00000088177938	0	0	-89.95960880073054	-41.86640466650175	84.20133662561504	95.10811244076307	45.00000088177938	0	0
11.65	-3.113325570362283	-0.6677771152030345	146.5919421581921	0	0.9399999999999999	0	44.99272008758705	-9.999999980310781	0	59.99788384164606	1.047160617265828	-4.999999850680672	0	0	44.99272008758705	-9.999999980310781	0	59.99788384164606	1.047160617265828	-4.999999850680672	0	0	-4.528364262889723	1.486412794076163	-1.126579069757764	0	-14.75519921584224	0	75.00224289794217	45.00000088140734	0	0	-89.9582694306556	-42.08723051016771	84.08606682269276	94.89674952462755	45.00000088140734	0	0
11.66	-3.140733320054539	-0.6767529486318745	146.5917151739576	0	0.9399999999999999	0	44.99273348473056	-9.999999980351227	0	59.99788777729771	1.047160685955907	-4.999999850682882	0	0	44.99273348473056	-9.999999980351227	0	59.99788777729771	1.047160685955907	-4.999999850682882	0	0	-5.242115992069109	2.191898155899918	-1.113186410236667	0	-14.75546332766272	0	75.00223909404536	45.00000087885523	0	0	-89.96649735087324	-42.92216973701751	82.82002884043443	95.39086013619828	45.00000087885523	0	0
11.67	-3.135557833083078	-0.6673565723301373	146.5807697342516	0	0.9399999999999999	0	44.99275818205265	-9.999999980422425	0	59.99789517930001	1.047160815145219	-4.999999850686724	0	0	44.99275818205265	-9.999999980422425	0	59.99789517930001	1.047160815145219	-4.999999850686724	0	0	-6.223393669809927	2.93259859085376	-1.068325473138803	0	-14.75595837271917	0	75.0022320816493	45.00000087431587	0	0	-89.97376716894352	-41.31524871309368	80.19484474416674	92.95951953594384	45.00000087431587	0	0
11.68	-3.129122952677372	-0.6575697479822072	146.5730831807027	0	0.9399999999999999	0	44.9927792221598	-9.999999980483592	0	59.99790144530407	1.047160924507621	-4.999999850690029	0	0	44.9927792221598	-9.999999980483592	0	59.99790144530407	1.047160924507621	-4.999999850690029	0	0	-7.867648282272443	4.267620501075669	-0.9775540836983029	0	-14.75637855935634	0	75.00222610765906	45.0000008704224	0	0	-89.98076993814918	-40.41586494731156	77.01895298665927	91.48902125297016	45.0000008704224	0	0
11.69	-3.137205577753972	-0.6453138410523533	146.5769119329044	0	0.9399999999999999	0	44.99281393652458	-9.999999980580169	0	59.9979120059072	1.047161108824916	-4.999999850695187	0	0	44.99281393652458	-9.999999980580169	0	59.9979120059072	1.047161108824916	-4.999999850695187	0	0	-9.937789105805397	5.535772134854835	-0.8339204733302961	0	-14.75708332602084	0	75.00221625108833	45.0000008642151	0	0	-89.98555789152587	-38.15990553031749	72.95745215883142	89.21716273473611	45.0000008642151	0	0
11.7	-3.136636400150416	-0.6516731650010467	146.5864797664146	0	0.9399999999999999	0	44.99283547221856	-9.999999980641926	0	59.99791842733541	1.047161220899981	-4.999999850698506	0	0	44.99283547221856	-9.999999980641926	0	59.99791842733541	1.047161220899981	-4.999999850698506	0	0	-12.41705726065349	6.867315399356738	-0.6237612442711179	0	-14.75751506559722	0	75.00221013638421	45.00000086027053	0	0	-89.98892559615066	-35.89523861844744	69.10523648701482	87.73321746424153	45.00000086027053	0	0
11.71	-3.119734798274437	-0.6704655356110447	146.6166055606433	0	0.9399999999999999	0	44.99286363952579	-9.999999980719759	0	59.99792696413417	1.047161369895227	-4.999999850702649	0	0	44.99286363952579	-9.999999980719759	0	59.99792696413417	1.047161369895227	-4.999999850702649	0	0	-14.6018198447669	6.454517374937541	-0.5893077682245526	0	-14.75808736118173	0	75.00220213874232	45.00000085525755	0	0	-89.99080523356929	-29.49330684026965	64.48475379669375	82.660561234838	45.00000085525755	0	0
11.72	-3.143951071988712	-0.6810609648869251	146.6547179476922	0	0.9399999999999999	0	44.99288502618225	-9.999999980780474	0	59.99793334386338	1.047161481242507	-4.999999850705902	0	0	44.99288502618225	-9.999999980780474	0	59.99793334386338	1.047161481242507	-4.999999850705902	0	0	-19.07536526867898	7.855666535567282	-0.2189910211929436	0	-14.75851727741428	0	75.00219606635476	45.00000085136926	0	0	-89.99314595988778	-26.53377773856599	59.8667286495398	83.18054857431105	45.00000085136926	0	0
11.73	-3.156675801031114	-0.6466299828796557	146.6408526626956	0	0.9399999999999999	0	44.99290852321109	-9.999999980845846	0	59.99794040967901	1.047161604564254	-4.999999850709386	0	0	44.99290852321109	-9.999999980845846	0	59.99794040967901	1.047161604564254	-4.999999850709386	0	0	-22.58506807980263	7.238438009290618	-0.09346803681497787	0	-14.75899302549933	0	75.0021893947615	45.00000084716377	0	0	-89.99428398305672	-21.01279826568616	55.19142216367403	81.19545492536278	45.00000084716377	0	0
11.74	-3.166089259289828	-0.6247853703920629	146.6269080372189	0	0.9399999999999999	0	44.99294020938642	-9.999999980932611	0	59.99794998849647	1.047161771746157	-4.999999850713983	0	0	44.99294020938642	-9.999999980932611	0	59.99794998849647	1.047161771746157	-4.999999850713983	0	0	-24.11304023286043	4.758350600248705	-0.4978215395245848	0	-14.75963797515689	0	75.00218039799498	45.00000084156079	0	0	-89.99466857968429	-13.67461487717278	50.25794727583718	76.8219206905701	45.00000084156079	0	0
11.75	-3.172953118588576	-0.592285561150933	146.5665806675727	0	0.9399999999999999	0	44.99297454262913	-9.999999981024711	0	59.99796043614899	1.047161954092093	-4.999999850718837	0	0	44.99297454262913	-9.999999981024711	0	59.99796043614899	1.047161954092093	-4.999999850718837	0	0	-24.31307085448956	1.995915852696433	-0.9698949640392364	0	-14.76034154131461	0	75.0021706496368	45.00000083558393	0	0	-89.9947035922106	-6.611624675916884	45.58426174075177	72.27039628181501	45.00000083558393	0	0
11.76	-3.20985070962736	-0.5410491406235944	146.536532807104	0	0.9399999999999999	0	44.99300301133617	-9.999999981101396	0	59.99796906180578	1.047162104638204	-4.999999850722884	0	0	44.99300301133617	-9.999999981101396	0	59.99796906180578	1.047162104638204	-4.999999850722884	0	0	-24.77416251301654	-0.2435330097235534	-1.400931171324953	0	-14.76092386527146	0	75.00216256641696	45.00000083061138	0	0	-89.99478719563602	-0.7338037419870808	41.34674661118912	69.34861399743376	45.00000083061138	0	0
11.77	-3.237506177944957	-0.5079111712152409	146.491809509736	0	0.9399999999999999	0	44.99310630267583	-9.999999981437039	0	59.99799615117749	1.047162577436933	-4.999999850741184	0	0	44.99310630267583	-9.999999981437039	0	59.99799615117749	1.047162577436933	-4.999999850741184	0	0	-24.11513233777214	-2.603890828366012	-1.810705345689916	0	-14.76283884960687	0	75.00213323856551	45.0000008095431	0	0	-89.99460397359658	5.434778931350134	38.0439912037592	65.63036810930534	45.0000008095431	0	0
11.78	-3.246441911508998	-0.5059288130513668	146.4644614768366	0	0.9399999999999999	0	44.99320077358562	-9.999999981731442	0	59.9980213619233	1.047163017447454	-4.999999850757038	0	0	44.99320077358562	-9.999999981731442	0	59.9980213619233	1.047163017447454	-4.999999850757038	0	0	-22.09272634381862	-4.472790379511625	-2.070837374912322	0	-14.76461854317201	0	75.00210641512456	45.00000079088458	0	0	-89.99403815830215	11.14037928032617	35.34522166487299	61.27413413277563	45.00000079088458	0	0
